<svg xmlns="http://www.w3.org/2000/svg" version="1.1" xmlns:xlink="http://www.w3.org/1999/xlink" width="1000" height="1000"><g clip-path="url(#SvgjsClipPath1055)"><rect width="1000" height="1000" fill="#000000"></rect><g transform="matrix(2.278720010417006,0,0,2.278720010417006,180.01074253719196,149.99999999999997)"><svg xmlns="http://www.w3.org/2000/svg" version="1.1" xmlns:xlink="http://www.w3.org/1999/xlink" width="280.85" height="307.19"><svg data-name="Layer 2" xmlns="http://www.w3.org/2000/svg" viewBox="0 0 280.85 307.19"><g data-name="Layer 1" fill="#34d399"><path d="M84.4 278.77c-5.38-3.9-10.18-7.97-15.12-12.26-4.55-3.96-8.56-8.06-12.76-12.51-15.78-16.71-28.1-36.27-36.98-57.52-3.73-8.91-6.86-17.72-9.18-27.03l-3.41-13.64 9.71 13.64c7.99 11.23 23.73 26.18 35.06 34.24.89.64 2.44 1.31 2.94 2.15 1.23 2.03 2.2 3.79 3.54 5.64l8.7 12.12c2.95 4.1 13.85 16.26 17.58 19.48l7 6.03c2.37 2.04 4.68 3.89 7.22 5.75 12.54 9.86 26.56 16.76 41.5 22.99 18.28-7.11 34.47-15.9 49.19-28.88l5.9-5.2c7.44-6.56 14.76-15.09 20.7-23.14 8.46-11.44 16.7-26.3 21.4-40.1-.28-1.93-1.25-4.36-2.3-6.43-6.32 6.15-12.22 11.96-19.26 16.81l-3.8 2.62c-15.42 10.63-31.45 16.53-49.92 20.25-16.86 3.39-34.33 2.69-50.93-1.67-4.1-1.08-7.7-2.11-11.64-3.45-28.32-9.61-50.42-27.26-68.78-50.54-1.32-1.67-2.33-3.44-3.55-5.17-8.79-12.44-16.63-28.86-21.02-43.52C3.36 99.98 1.97 90.46.67 80.69-.6 65.19-.05 52.33 1.99 37.1c14.93-8.61 30.05-15.95 46.35-21.14l17.28-5.5C70.3 8.97 74.86 8.1 79.59 7c7.9-1.85 15.44-3.36 23.58-4.45 25.26-3.4 50.31-3.39 75.57.05 8.75 1.19 16.81 3.15 25.36 4.99 8.05 1.74 15.49 4.1 23.36 6.68 17.81 5.84 34.54 13.48 50.91 22.85 2.99 19.99 3.28 52.35.95 72.27l-4.42 37.79c-.02.2-.18.69-.22.82s-.44-.18-.57-.28l-3.66-6.67c-2.32-4.24-4.43-8.52-7.37-12.41l-8.63-11.41c-2.39-3.16-6.12-6.74-8.72-9.79 5.94-15.34 7.94-36.29 6.56-52.67-11.77-5.86-23.61-11.27-36.19-14.94l-4.09-1.19-14.95-4.11c-7.6-2.09-15.17-3.06-23.02-4.25-23.94-3.61-50.92-2.96-74.75 1.1-11.89 2.03-23.18 4.47-34.52 8.47l-15.49 5.47c-3.72 1.31-7.21 2.85-10.78 4.57l-10.4 5c-1.6 23.66 2.29 49.93 14.84 70.72 2.83-2.96 5.29-5.87 8.27-8.59l4.96-4.52c14.56-13.28 35.43-23.79 54.68-28.37 30.85-7.35 63.08-2.91 90.86 12.21 12.85 6.99 26.3 18.07 35.95 29.1 11.09 12.67 19.91 26.98 25.07 42.98 1.4 4.35 2.46 8.33 3.64 12.79-3.87 13.51-9.52 26.09-16.58 38.12l-2.21 3.76c-3.17 5.4-6.63 10.24-10.44 15.31-8.21 10.92-17.64 20.81-27.94 29.92-19.97 17.64-43.21 30.9-68.63 38.91-1.81-.19-3.49-.93-5.09-1.51l-7.34-2.65c-13.77-4.97-31.49-15.38-43.73-24.25Zm86.25-105.01c2.21-2.71 3.96-5.51 5.54-8.73 6.74-13.75 4.48-30.48-5.26-42.22-7.9-9.53-19.17-14.67-31.55-14.27-5.43.17-10.35 1.07-15.24 3.3-8.7 3.97-15.52 10.43-19.64 19.08-2.79 5.85-4.24 11.74-4.04 18.27.21 6.89 1.97 13.32 5.57 19.19 2.46 4.02 5.92 8.3 9.78 11.02 2.48 1.75 4.8 3.41 7.59 4.67 15.84 7.16 36.14 3.35 47.25-10.31m-92.63-7.53c6.56 4.66 12.71 8.95 20.39 11.99-3.23-3.59-5.11-7.55-6.74-12.18-5.62-16-3.44-33.99 6.65-48.07-3.32 1.07-9.54 4.81-12.24 6.71l-5.77 4.06c-7.99 5.62-14.63 12.6-20.82 20.35 4.96 5.65 12.6 12.94 18.53 17.14m124.14.48c2.34-1.59 4.52-3.23 6.63-5.21l6.5-6.12c2.08-1.96 3.91-3.88 5.67-6.29-3.14-4.67-6.74-8.22-10.77-12.06-8.09-7.71-17.07-14.34-27.81-19.12 7.85 12 11.43 26.05 8.71 40.1-.67 3.47-1.97 6.58-3.1 9.86-1.29 3.75-3.3 6.87-5.58 10.52 4.25-1.68 8.3-3.92 12.2-6.55l7.55-5.11Z"></path><path d="M163.17 137.46c5.77 13.45-.61 28.99-14.43 34.08-6.18 2.28-13.27 1.96-19.17-.75-2.55-1.17-4.69-2.89-6.71-4.78-7.97-7.45-9.54-19.06-5.12-29.05 5.14-11.64 20.32-17.9 32.53-12.22-3.24 1.06-5.87 2.92-7.16 5.25-1.79 3.23-1.93 6.76-.42 9.82 2.28 4.63 7.43 7.23 12.41 5.8 3.95-1.14 6.18-4.25 8.07-8.17Z"></path></g></svg></svg></g></g><defs><clipPath id="SvgjsClipPath1055"><rect width="1000" height="1000" x="0" y="0" rx="350" ry="350"></rect></clipPath></defs></svg>